<svg version="1" xmlns="http://www.w3.org/2000/svg" width="384" height="384" viewBox="0 0 288.000000 288.000000"><path d="M200.4 62c-9.4 2.4-15.8 5.8-22.2 11.5-16.9 15.2-17.1 45.1-.4 60.7 8.3 7.8 17.2 11.6 45 19.2 12.5 3.5 19.5 7 25.3 12.5 8.1 7.9 9.9 19.3 4.7 31.3-9.2 21.5-49.8 25.1-67 5.9-3.9-4.3-6.1-9.1-8.4-17.9-.4-1.3-16.4-1.8-16.4-.5.1 4.1 3.5 15.5 6.1 20.4 10.6 19.9 40.3 30.3 67.9 23.7 7.4-1.7 18.4-7.4 23.8-12.3 17.2-15.5 18-47.1 1.6-62.8-8.4-8.1-17-11.7-47.2-20.1-23-6.4-32.2-16-30.9-32.1.9-11.4 5.8-18.3 16.7-23.4 5-2.3 6.7-2.5 18.1-2.6 12.5 0 12.7 0 19.5 3.5 5.5 2.8 7.6 4.6 10.6 9 2.1 3 4.4 7.9 5 10.7l1.3 5.3h16.4l-.6-3.8c-2.7-19.7-16.2-33.9-36.8-38.7-9-2-23.3-1.8-32.1.5zM20 145v82.2l30.8-.4c28.8-.4 31.1-.5 37.7-2.7 3.9-1.3 8.8-3.2 11-4.3 10.9-5.5 20.6-16 26-28.3 8.5-19.2 10.5-55.2 4.5-79.2-6.2-24.3-21.2-40.4-43.7-46.5-6.9-1.9-11.2-2.2-37-2.6L20 62.8V145zm57.5-65.5c13.1 2.8 22.1 8.7 28.7 18.9 14.4 22.3 14.4 72.9-.1 94-10.5 15.2-20.8 19.3-50.8 20.3l-19.3.6V78h17.3c11.3 0 19.6.5 24.2 1.5z"/></svg>