<svg xmlns="http://www.w3.org/2000/svg" width="207.422" height="459.998" viewBox="0 0 207.422 459.998">
  <g id="_x35_80_x2C__Car_x2C__formula_x2C__game_x2C__racing_x2C__speed" transform="translate(-152.289 -26.001)">
    <g id="Group_52" data-name="Group 52">
      <path id="Path_72" data-name="Path 72" d="M307.777,100.621H297.612v26.715h10.165Zm-93.984,26.715V100.621H203.649v26.715Zm99.377,17.472h28.76V83.149H313.17Zm46.541,161.936H332.688v62.451h27.023Zm-32.524,17.868H317.02v26.714h10.167V324.612ZM179.312,306.744H152.289v62.451h27.023Zm15.667,44.582V324.612H184.835v26.714Zm82.938,29.642H233.511v10.167h44.406ZM198.235,83.149h-28.76v61.658h28.76Zm74.312,98.8H238.858L215,226.338v62.119h22.247a2.706,2.706,0,0,1,2.708,2.707v43.725h31.489V291.164a2.705,2.705,0,0,1,2.707-2.707H296.4V226.338Zm33.691,228.59H205.168v8.582h101.07ZM202.461,405.13H308.944a2.7,2.7,0,0,1,2.706,2.707v11.288h32.985V396.548H166.79v22.577h32.965V407.837A2.7,2.7,0,0,1,202.461,405.13Zm66.28-176.284a18.462,18.462,0,1,0,5.391,13.05A18.4,18.4,0,0,0,268.741,228.846Zm-13.027-10.8a23.893,23.893,0,1,1-16.856,7A23.771,23.771,0,0,1,255.714,218.041Zm-46.1,8.582L183.6,194.475l-13.929,88.2,28.606,9.507a2.731,2.731,0,0,1,2.113,2.642v80.736H311.014V294.819a2.758,2.758,0,0,1,1.87-2.554l28.849-9.6-13.469-85.357-26.449,31.665v62.187a2.705,2.705,0,0,1-2.707,2.707H276.86V337.6a2.706,2.706,0,0,1-2.706,2.707h-36.9a2.706,2.706,0,0,1-2.706-2.707V293.872H212.3a2.7,2.7,0,0,1-2.685-2.707V226.623ZM185.87,188.708l25.988,32.128,23.017-42.866a2.7,2.7,0,0,1,2.376-1.408l36.9-.022a2.691,2.691,0,0,1,2.464,1.607l23.743,44.143,26.781-32.063-.088-.55-33.514-21.9a2.673,2.673,0,0,1-1.343-2.332V55.951H258.156c.2,15.668,1.057,94.072-.154,97.7a2.693,2.693,0,1,1-5.1-1.717c.923-2.816.065-80.5-.11-95.986H219.207V165.47a2.66,2.66,0,0,1-1.232,2.244Zm10.1,245.776a5.4,5.4,0,1,1,10.8,0v22.335a5.4,5.4,0,1,1-10.8,0ZM222.4,447.71a5.413,5.413,0,0,1,10.827,0v22.335a5.413,5.413,0,1,1-10.827,0Zm25.548-13.226a5.4,5.4,0,1,1,10.8,0v22.335a5.4,5.4,0,1,1-10.8,0Zm20.267,14.942c0-3.938,2.42-7.129,5.413-7.129s5.414,3.19,5.414,7.129v29.443c0,3.939-2.422,7.13-5.414,7.13s-5.413-3.19-5.413-7.13ZM216.5,50.537h94.886l-.639-8.186L254.964,26,199.512,42.263l.66,8.273H216.5Z" fill="#fff" fill-rule="evenodd"/>
    </g>
  </g>
</svg>
