<svg xmlns="http://www.w3.org/2000/svg" width="1062.44" height="751.765" viewBox="0 0 1062.44 751.765">
  <g id="bull-side-view-black-animal-shape" transform="translate(0 0)">
    <g id="Group_7" data-name="Group 7" transform="translate(0 0)">
      <path id="Path_7" data-name="Path 7" d="M84.5,496.4l63.258-37.14a225.325,225.325,0,0,1-20.039-67.176C-3.763,481.476.011,258.172.011,258.172l23.023,37.173c1.2,151.708,91.564,77.2,103.657,66.543,3.415-50.774,35.469-104.068,150.807-112.655,0,0,83.735-8.515,162.221-90.513,0,0,228.9-286.942,435.529-23.937,0,0,50.356,58.9,61.469,91.349,0,0,75.168-8.508,114.4,53.836,0,0-52.916-15.384-62.305-6.02,0,0,77.689,36.716,73.458,114.444,0,0-52.067-76.024-103.337-70.036,0,0-8.547,31.59-24.754,53.791V402.88s.855,17.911-56.337,21.332c0,0-27.333-2.566-30.754-74.306,0,0-6.836-30.735-36.716-13.634,0,0-82.939,68.325,0,96.474,36.559,12.4,145.178,19.641,134.927,75.149l-84.571,29.017s4.231-30.735-18.766-50.336c0,0-81.091,9.827-122.1-.477,0,0,135.737,44.852,124.271,125.524H754.476s21.789-53.751-30.735-57.61c0,0-98.6-33.275-147.307-126.791,0,0-138.342-23.036-270.226,133.19,0,0-12.8,66.634,76.859,93.516,0,0,81.985,19.243,81.985,85.759h-94.79s26.921-46.086-34.633-48.619c0,0-143.409-14.117-129.37-56.383,0,0-3.859-51.211-29.507-51.211,0,0-62.736,10.212-98.6,140.862,0,0,37.173,20.483,37.173,51.218H21.767s-43.539-87.117,49.977-233.112Z" transform="translate(0.001 -23.791)" fill="#ef6363"/>
    </g>
  </g>
</svg>
