<svg xmlns="http://www.w3.org/2000/svg" width="294" height="212" viewBox="0 0 294 212">
  <g id="Group_51" data-name="Group 51" transform="translate(-41 -324)">
    <g id="iconfinder__Zombie_skull_1573301" transform="translate(88.255 306.72)">
      <g id="Group_20" data-name="Group 20" transform="translate(17.747 19.933)">
        <g id="Group_19" data-name="Group 19">
          <path id="Path_12" data-name="Path 12" d="M172.358,136.426a81.516,81.516,0,1,0-146.192,0H172.358Z" transform="translate(-17.746 -18.818)" fill="#ab8ac4"/>
          <path id="Path_13" data-name="Path 13" d="M86.646,69.583V99.616H102.72V69.583H86.646Zm6.628,26.845h-2.5V93.934h2.5Zm0-4.937h-2.5V89h2.5Zm0-4.939h-2.5v-2.5h2.5Zm0-4.939h-2.5V79.119h2.5Zm0-4.937h-2.5v-2.5h2.5Zm5.31,19.752H96.091V93.934h2.493Zm0-4.937H96.091V89h2.493Zm0-4.939H96.091v-2.5h2.493Zm0-4.939H96.091V79.119h2.493Zm0-4.937H96.091v-2.5h2.493Z" transform="translate(32.211 17.99)" fill="#8a6aa5"/>
          <rect id="Rectangle_3" data-name="Rectangle 3" width="13.335" height="13.607" transform="translate(107.471 104)" fill="#8a6aa5"/>
          <path id="Path_14" data-name="Path 14" d="M91.654,90.782H70.013l8.306-9.012H91.654Z" transform="translate(20.151 26.826)" fill="#8a6aa5"/>
          <rect id="Rectangle_4" data-name="Rectangle 4" width="13.335" height="8.358" transform="translate(133.052 109.25)" fill="#8a6aa5"/>
          <rect id="Rectangle_5" data-name="Rectangle 5" width="13.335" height="5.294" transform="translate(141.612 112.312)" fill="#8a6aa5"/>
          <rect id="Rectangle_6" data-name="Rectangle 6" width="4.67" height="4.765" transform="translate(111.804 100.743)" fill="#8a6aa5"/>
          <g id="Group_18" data-name="Group 18" transform="translate(99.175 54.141)">
            <path id="Path_15" data-name="Path 15" d="M118.5,64.4a14.194,14.194,0,0,0-28.388,0H75.237" transform="translate(-75.237 -50.203)" fill="none" stroke="#d2bad8" stroke-linecap="round" stroke-linejoin="round" stroke-miterlimit="10" stroke-width="2"/>
            <path id="Path_16" data-name="Path 16" d="M108.652,62.6a9.909,9.909,0,0,0-9.912-9.91" transform="translate(-58.196 -48.403)" fill="none" stroke="#d2bad8" stroke-linecap="round" stroke-linejoin="round" stroke-miterlimit="10" stroke-width="2"/>
          </g>
          <line id="Line_3" data-name="Line 3" x2="160.511" transform="translate(1.259 117.608)" fill="none" stroke="#343d47" stroke-linecap="round" stroke-linejoin="round" stroke-miterlimit="10" stroke-width="2"/>
        </g>
        <circle id="Ellipse_2" data-name="Ellipse 2" cx="2.263" cy="2.263" r="2.263" transform="translate(69.233 17.28)" fill="#d2bad8"/>
        <circle id="Ellipse_3" data-name="Ellipse 3" cx="2.263" cy="2.263" r="2.263" transform="translate(83.583 28.567)" fill="#d2bad8"/>
        <circle id="Ellipse_4" data-name="Ellipse 4" cx="1.287" cy="1.287" r="1.287" transform="translate(81.007 19.231)" fill="#d2bad8"/>
        <circle id="Ellipse_5" data-name="Ellipse 5" cx="1.287" cy="1.287" r="1.287" transform="translate(50.767 24.587)" fill="#d2bad8"/>
        <circle id="Ellipse_6" data-name="Ellipse 6" cx="1.287" cy="1.287" r="1.287" transform="translate(61.795 7.892)" fill="#d2bad8"/>
      </g>
      <g id="Group_23" data-name="Group 23" transform="translate(42.377 145.436)">
        <g id="Group_22" data-name="Group 22">
          <path id="Path_17" data-name="Path 17" d="M98.871,110.475H90.677a7.044,7.044,0,0,0-7.045-7.043H67.792v0a7.044,7.044,0,0,0-7.045-7.043H55.886a7.044,7.044,0,0,0-7.045,7.043v0H39.07a7.044,7.044,0,1,0,0,14.089h8.194a7.043,7.043,0,0,0,7.045,7.043H98.871a7.044,7.044,0,1,0,0-14.089Z" transform="translate(-32.023 -88.08)" fill="#f4537a"/>
          <path id="Path_18" data-name="Path 18" d="M67.793,103.371h0A6.973,6.973,0,0,0,66.9,100L54.467,96.469a7.046,7.046,0,0,0-5.627,6.9v0H39.069a7.044,7.044,0,1,0,0,14.089h2.955l36.718-14.089H67.793Z" transform="translate(-32.024 -88.02)" fill="#ce4a70"/>
          <g id="Group_21" data-name="Group 21" transform="translate(16.976)">
            <line id="Line_4" data-name="Line 4" x2="49.538" transform="translate(0 15.365)" fill="none" stroke="#343d47" stroke-linecap="round" stroke-linejoin="round" stroke-miterlimit="10" stroke-width="2"/>
            <line id="Line_5" data-name="Line 5" x2="49.538" transform="translate(7.682 7.683)" fill="none" stroke="#343d47" stroke-linecap="round" stroke-linejoin="round" stroke-miterlimit="10" stroke-width="2"/>
            <line id="Line_6" data-name="Line 6" x2="49.538" transform="translate(15.363)" fill="none" stroke="#343d47" stroke-linecap="round" stroke-linejoin="round" stroke-miterlimit="10" stroke-width="2"/>
          </g>
          <path id="Path_19" data-name="Path 19" d="M92.6,104.553H87.742a7.044,7.044,0,1,0,0,14.089H92.6a7.044,7.044,0,1,0,0-14.089Z" transform="translate(3.267 -82.158)" fill="#f4537a"/>
        </g>
        <path id="Path_20" data-name="Path 20" d="M78.842,108.29a1.651,1.651,0,0,1-1.651,1.653h-23a1.654,1.654,0,0,1-1.654-1.653h0a1.654,1.654,0,0,1,1.654-1.653h23a1.651,1.651,0,0,1,1.651,1.653Z" transform="translate(-17.152 -80.647)" fill="#ff83a6"/>
        <path id="Path_21" data-name="Path 21" d="M74.417,108.29a1.651,1.651,0,0,1-1.651,1.653H70.779a1.654,1.654,0,0,1-1.654-1.653h0a1.654,1.654,0,0,1,1.654-1.653h1.987a1.651,1.651,0,0,1,1.651,1.653Z" transform="translate(-5.124 -80.647)" fill="#ff83a6"/>
        <path id="Path_22" data-name="Path 22" d="M88.413,108.29a1.651,1.651,0,0,1-1.651,1.653H84.775a1.654,1.654,0,0,1-1.654-1.653h0a1.654,1.654,0,0,1,1.654-1.653h1.987a1.651,1.651,0,0,1,1.651,1.653Z" transform="translate(5.024 -80.647)" fill="#ff83a6"/>
        <path id="Path_23" data-name="Path 23" d="M53.27,108.29a1.651,1.651,0,0,1-1.651,1.653H49.632a1.654,1.654,0,0,1-1.654-1.653h0a1.654,1.654,0,0,1,1.654-1.653H51.62a1.65,1.65,0,0,1,1.651,1.653Z" transform="translate(-20.456 -80.647)" fill="#ff83a6"/>
        <path id="Path_24" data-name="Path 24" d="M64.4,103.54a1.654,1.654,0,0,1-1.654,1.653H60.758a1.651,1.651,0,0,1-1.651-1.653h0a1.651,1.651,0,0,1,1.651-1.653h1.987A1.653,1.653,0,0,1,64.4,103.54Z" transform="translate(-12.387 -84.091)" fill="#ff83a6"/>
        <path id="Path_25" data-name="Path 25" d="M47.152,108.29a1.651,1.651,0,0,1-1.651,1.653h-.169a1.651,1.651,0,0,1-1.651-1.653h0a1.651,1.651,0,0,1,1.651-1.653H45.5a1.651,1.651,0,0,1,1.651,1.653Z" transform="translate(-23.572 -80.647)" fill="#ff83a6"/>
        <path id="Path_26" data-name="Path 26" d="M59.062,103.54a1.651,1.651,0,0,1-1.651,1.653h-.169a1.651,1.651,0,0,1-1.651-1.653h0a1.651,1.651,0,0,1,1.651-1.653h.169a1.651,1.651,0,0,1,1.651,1.653Z" transform="translate(-14.937 -84.091)" fill="#ff83a6"/>
        <path id="Path_27" data-name="Path 27" d="M90.709,108.29a1.651,1.651,0,0,1-1.651,1.653h-.169a1.651,1.651,0,0,1-1.651-1.653h0a1.651,1.651,0,0,1,1.651-1.653h.169a1.651,1.651,0,0,1,1.651,1.653Z" transform="translate(8.009 -80.647)" fill="#ff83a6"/>
      </g>
      <g id="Group_49" data-name="Group 49" transform="translate(17.745 56.777)">
        <g id="Group_32" data-name="Group 32">
          <path id="Path_28" data-name="Path 28" d="M118.607,86.132c0-22.338-18.106-45.956-40.444-45.956H58.19c-22.338,0-40.444,23.616-40.444,45.956a40.263,40.263,0,0,0,21.118,35.326v7.29A15.465,15.465,0,0,0,54.322,144.2H82.034a15.465,15.465,0,0,0,15.455-15.455v-7.29A40.263,40.263,0,0,0,118.607,86.132Z" transform="translate(-17.744 -40.176)" fill="#6bdda6"/>
          <path id="Path_29" data-name="Path 29" d="M97.489,94.336v7.29a15.465,15.465,0,0,1-15.455,15.455H54.323a15.465,15.465,0,0,1-15.458-15.455v-7.29A40.37,40.37,0,0,1,18.059,63.884a43.341,43.341,0,0,0-.314,5.058,40.263,40.263,0,0,0,21.118,35.326v7.29a15.465,15.465,0,0,0,15.458,15.455H82.033a15.465,15.465,0,0,0,15.455-15.455v-7.29a40.261,40.261,0,0,0,21.118-35.326,42.967,42.967,0,0,0-.314-5.058A40.357,40.357,0,0,1,97.489,94.336Z" transform="translate(-17.745 -22.986)" fill="#51bfaa"/>
          <path id="Path_30" data-name="Path 30" d="M83.757,75.074A10.345,10.345,0,0,0,74.683,69.7h-.417a10.351,10.351,0,0,0-10.35,10.35v28.139c0,.188.017.373.028.557.043-.464.071-.932.071-1.406v-7.29A40.541,40.541,0,0,0,83.757,75.074Z" transform="translate(15.731 -18.77)" fill="#51bfaa"/>
          <path id="Path_31" data-name="Path 31" d="M18.484,75.074A10.351,10.351,0,0,1,27.561,69.7h.417a10.353,10.353,0,0,1,10.35,10.35v28.139c0,.188-.021.373-.031.557-.04-.464-.071-.932-.071-1.406v-7.29A40.553,40.553,0,0,1,18.484,75.074Z" transform="translate(-17.209 -18.77)" fill="#51bfaa"/>
          <path id="Path_32" data-name="Path 32" d="M58.19,47.521H78.163c21.085,0,38.389,21.039,40.27,42.185.105-1.18.176-2.367.176-3.574,0-22.338-18.106-45.956-40.444-45.956H58.19c-22.338,0-40.444,23.616-40.444,45.956,0,1.208.071,2.4.176,3.574C19.8,68.56,37.1,47.521,58.19,47.521Z" transform="translate(-17.744 -40.176)" fill="#84f4ba"/>
          <path id="Path_33" data-name="Path 33" d="M44.246,70.021,53.7,60.562l-5.67-5.672L62.166,40.755" transform="translate(1.47 -39.756)" fill="none" stroke="#343d47" stroke-linecap="round" stroke-linejoin="round" stroke-miterlimit="10" stroke-width="2"/>
          <g id="Group_24" data-name="Group 24" transform="translate(15.574 40.415)">
            <path id="Path_34" data-name="Path 34" d="M52.038,76.233A12.633,12.633,0,1,1,39.4,63.6,12.633,12.633,0,0,1,52.038,76.233Z" transform="translate(-26.773 -63.604)" fill="#51bfaa"/>
            <path id="Path_35" data-name="Path 35" d="M77.8,76.233A12.633,12.633,0,1,1,65.169,63.6,12.632,12.632,0,0,1,77.8,76.233Z" transform="translate(-8.094 -63.604)" fill="#51bfaa"/>
          </g>
          <line id="Line_7" data-name="Line 7" y2="19.914" transform="translate(21.12 59.811)" fill="#9de069"/>
          <g id="Group_27" data-name="Group 27" transform="translate(23.09 69.796)">
            <g id="Group_25" data-name="Group 25">
              <path id="Path_36" data-name="Path 36" d="M36.355,87.265h0a5.094,5.094,0,0,0,5.08,5.092H55.081" transform="translate(-27.342 -75.83)" fill="#51bfaa"/>
              <path id="Path_37" data-name="Path 37" d="M40.126,92.051V84.566a3.932,3.932,0,0,0-3.935-3.93H31.13" transform="translate(-31.13 -80.636)" fill="#51bfaa"/>
            </g>
            <g id="Group_26" data-name="Group 26" transform="translate(26.945)">
              <path id="Path_38" data-name="Path 38" d="M65.472,87.265h0a5.093,5.093,0,0,1-5.087,5.092H46.75" transform="translate(-46.75 -75.83)" fill="#51bfaa"/>
              <path id="Path_39" data-name="Path 39" d="M57.615,92.051V84.566a3.932,3.932,0,0,1,3.935-3.93H66.6" transform="translate(-38.872 -80.636)" fill="#51bfaa"/>
            </g>
          </g>
          <line id="Line_8" data-name="Line 8" y2="19.914" transform="translate(79.648 59.811)" fill="#9de069"/>
          <path id="Path_40" data-name="Path 40" d="M26.419,47.8h0a6.152,6.152,0,0,1,6.155,6.145V71.563" transform="translate(-11.456 -34.648)" fill="#51bfaa"/>
          <path id="Path_41" data-name="Path 41" d="M70.061,47.8h0a6.143,6.143,0,0,0-6.145,6.145V71.563" transform="translate(15.732 -34.648)" fill="#51bfaa"/>
          <path id="Path_42" data-name="Path 42" d="M22.861,78.5" transform="translate(-14.036 -12.39)" fill="#9de069"/>
          <path id="Path_43" data-name="Path 43" d="M48.959,69.7,44.246,82.847h9.433Z" transform="translate(1.47 -18.77)" fill="#84f4ba"/>
          <path id="Path_44" data-name="Path 44" d="M48.959,74.585,44.246,79.3h9.433Z" transform="translate(1.47 -15.227)" fill="#51bfaa"/>
          <g id="Group_30" data-name="Group 30" transform="translate(41.065 79.972)">
            <g id="Group_28" data-name="Group 28">
              <line id="Line_9" data-name="Line 9" y2="5.111" fill="#9de069"/>
              <line id="Line_10" data-name="Line 10" y2="5.111" transform="translate(9.364)" fill="#9de069"/>
              <line id="Line_11" data-name="Line 11" y2="5.111" transform="translate(18.724)" fill="#9de069"/>
            </g>
            <g id="Group_29" data-name="Group 29" transform="translate(0 6.203)">
              <line id="Line_12" data-name="Line 12" y2="5.113" fill="#9de069"/>
              <line id="Line_13" data-name="Line 13" y2="5.113" transform="translate(9.364)" fill="#9de069"/>
              <line id="Line_14" data-name="Line 14" y2="5.113" transform="translate(18.724)" fill="#9de069"/>
            </g>
          </g>
          <g id="Group_31" data-name="Group 31" transform="translate(15.574 35.767)">
            <path id="Path_45" data-name="Path 45" d="M52.038,73.539A12.633,12.633,0,1,1,39.4,60.91,12.633,12.633,0,0,1,52.038,73.539Z" transform="translate(-26.773 -60.91)" fill="#ed54a1"/>
            <path id="Path_46" data-name="Path 46" d="M26.773,73.539a12.633,12.633,0,0,1,25.265,0" transform="translate(-26.773 -60.91)" fill="#ad45a8"/>
            <path id="Path_47" data-name="Path 47" d="M77.8,73.539A12.633,12.633,0,1,1,65.169,60.91,12.632,12.632,0,0,1,77.8,73.539Z" transform="translate(-8.094 -60.91)" fill="#ed54a1"/>
            <path id="Path_48" data-name="Path 48" d="M52.535,73.539a12.633,12.633,0,0,1,25.265,0" transform="translate(-8.094 -60.91)" fill="#ad45a8"/>
          </g>
        </g>
        <g id="Group_40" data-name="Group 40" transform="translate(0.002)">
          <path id="Path_49" data-name="Path 49" d="M118.607,86.132c0-22.338-18.106-45.956-40.444-45.956H58.19c-22.338,0-40.444,23.616-40.444,45.956a40.263,40.263,0,0,0,21.118,35.326v7.29A15.465,15.465,0,0,0,54.322,144.2H82.034a15.465,15.465,0,0,0,15.455-15.455v-7.29A40.263,40.263,0,0,0,118.607,86.132Z" transform="translate(-17.746 -40.176)" fill="none" stroke="#272f33" stroke-linecap="round" stroke-linejoin="round" stroke-miterlimit="10" stroke-width="2"/>
          <line id="Line_15" data-name="Line 15" y2="19.914" transform="translate(21.118 59.811)" fill="none" stroke="#272f33" stroke-linecap="round" stroke-linejoin="round" stroke-miterlimit="10" stroke-width="2"/>
          <g id="Group_35" data-name="Group 35" transform="translate(23.088 69.796)">
            <g id="Group_33" data-name="Group 33">
              <path id="Path_50" data-name="Path 50" d="M36.355,87.265h0a5.094,5.094,0,0,0,5.08,5.092H55.081" transform="translate(-27.342 -75.83)" fill="none" stroke="#272f33" stroke-linecap="round" stroke-linejoin="round" stroke-miterlimit="10" stroke-width="2"/>
              <path id="Path_51" data-name="Path 51" d="M40.126,92.051V84.566a3.932,3.932,0,0,0-3.935-3.93H31.13" transform="translate(-31.13 -80.636)" fill="none" stroke="#272f33" stroke-linecap="round" stroke-linejoin="round" stroke-miterlimit="10" stroke-width="2"/>
            </g>
            <g id="Group_34" data-name="Group 34" transform="translate(26.945)">
              <path id="Path_52" data-name="Path 52" d="M65.472,87.265h0a5.093,5.093,0,0,1-5.087,5.092H46.75" transform="translate(-46.75 -75.83)" fill="none" stroke="#272f33" stroke-linecap="round" stroke-linejoin="round" stroke-miterlimit="10" stroke-width="2"/>
              <path id="Path_53" data-name="Path 53" d="M57.615,92.051V84.566a3.932,3.932,0,0,1,3.935-3.93H66.6" transform="translate(-38.872 -80.636)" fill="none" stroke="#272f33" stroke-linecap="round" stroke-linejoin="round" stroke-miterlimit="10" stroke-width="2"/>
            </g>
          </g>
          <line id="Line_16" data-name="Line 16" y2="19.914" transform="translate(79.646 59.811)" fill="none" stroke="#272f33" stroke-linecap="round" stroke-linejoin="round" stroke-miterlimit="10" stroke-width="2"/>
          <path id="Path_54" data-name="Path 54" d="M26.419,47.8h0a6.152,6.152,0,0,1,6.155,6.145V71.563" transform="translate(-11.458 -34.648)" fill="none" stroke="#272f33" stroke-linecap="round" stroke-linejoin="round" stroke-miterlimit="10" stroke-width="2"/>
          <path id="Path_55" data-name="Path 55" d="M70.061,47.8h0a6.143,6.143,0,0,0-6.145,6.145V71.563" transform="translate(15.73 -34.648)" fill="none" stroke="#272f33" stroke-linecap="round" stroke-linejoin="round" stroke-miterlimit="10" stroke-width="2"/>
          <path id="Path_56" data-name="Path 56" d="M22.861,78.5" transform="translate(-14.037 -12.39)" fill="none" stroke="#272f33" stroke-linecap="round" stroke-linejoin="round" stroke-miterlimit="10" stroke-width="2"/>
          <path id="Path_57" data-name="Path 57" d="M44.246,79.3l4.713-4.72,4.72,4.72" transform="translate(1.468 -15.227)" fill="none" stroke="#272f33" stroke-linecap="round" stroke-linejoin="round" stroke-miterlimit="10" stroke-width="2"/>
          <g id="Group_38" data-name="Group 38" transform="translate(41.063 79.972)">
            <g id="Group_36" data-name="Group 36">
              <line id="Line_17" data-name="Line 17" y2="5.111" stroke-width="2" stroke="#272f33" stroke-linecap="round" stroke-linejoin="round" stroke-miterlimit="10" fill="none"/>
              <line id="Line_18" data-name="Line 18" y2="5.111" transform="translate(9.364)" fill="none" stroke="#272f33" stroke-linecap="round" stroke-linejoin="round" stroke-miterlimit="10" stroke-width="2"/>
              <line id="Line_19" data-name="Line 19" y2="5.111" transform="translate(18.724)" fill="none" stroke="#272f33" stroke-linecap="round" stroke-linejoin="round" stroke-miterlimit="10" stroke-width="2"/>
            </g>
            <g id="Group_37" data-name="Group 37" transform="translate(0 6.203)">
              <line id="Line_20" data-name="Line 20" y2="5.113" stroke-width="2" stroke="#272f33" stroke-linecap="round" stroke-linejoin="round" stroke-miterlimit="10" fill="none"/>
              <line id="Line_21" data-name="Line 21" y2="5.113" transform="translate(9.364)" fill="none" stroke="#272f33" stroke-linecap="round" stroke-linejoin="round" stroke-miterlimit="10" stroke-width="2"/>
              <line id="Line_22" data-name="Line 22" y2="5.113" transform="translate(18.724)" fill="none" stroke="#272f33" stroke-linecap="round" stroke-linejoin="round" stroke-miterlimit="10" stroke-width="2"/>
            </g>
          </g>
          <g id="Group_39" data-name="Group 39" transform="translate(15.572 35.767)">
            <path id="Path_58" data-name="Path 58" d="M52.038,73.539A12.633,12.633,0,1,1,39.4,60.91,12.633,12.633,0,0,1,52.038,73.539Z" transform="translate(-26.773 -60.91)" fill="none" stroke="#272f33" stroke-linecap="round" stroke-linejoin="round" stroke-miterlimit="10" stroke-width="2"/>
            <path id="Path_59" data-name="Path 59" d="M77.8,73.539A12.633,12.633,0,1,1,65.169,60.91,12.632,12.632,0,0,1,77.8,73.539Z" transform="translate(-8.094 -60.91)" fill="none" stroke="#272f33" stroke-linecap="round" stroke-linejoin="round" stroke-miterlimit="10" stroke-width="2"/>
          </g>
        </g>
        <g id="Group_48" data-name="Group 48" transform="translate(0.002)">
          <path id="Path_60" data-name="Path 60" d="M118.607,86.132c0-22.338-18.106-45.956-40.444-45.956H58.19c-22.338,0-40.444,23.616-40.444,45.956a40.263,40.263,0,0,0,21.118,35.326v7.29A15.465,15.465,0,0,0,54.322,144.2H82.034a15.465,15.465,0,0,0,15.455-15.455v-7.29A40.263,40.263,0,0,0,118.607,86.132Z" transform="translate(-17.746 -40.176)" fill="none" stroke="#343d47" stroke-linecap="round" stroke-linejoin="round" stroke-miterlimit="10" stroke-width="2"/>
          <line id="Line_23" data-name="Line 23" y2="21.639" transform="translate(21.118 59.811)" fill="none" stroke="#343d47" stroke-linecap="round" stroke-linejoin="round" stroke-miterlimit="10" stroke-width="2"/>
          <g id="Group_43" data-name="Group 43" transform="translate(23.088 69.796)">
            <g id="Group_41" data-name="Group 41">
              <path id="Path_61" data-name="Path 61" d="M36.355,87.265h0a5.094,5.094,0,0,0,5.08,5.092H55.081" transform="translate(-27.342 -75.83)" fill="none" stroke="#343d47" stroke-linecap="round" stroke-linejoin="round" stroke-miterlimit="10" stroke-width="2"/>
              <path id="Path_62" data-name="Path 62" d="M40.126,92.051V84.566a3.932,3.932,0,0,0-3.935-3.93H31.13" transform="translate(-31.13 -80.636)" fill="none" stroke="#343d47" stroke-linecap="round" stroke-linejoin="round" stroke-miterlimit="10" stroke-width="2"/>
            </g>
            <g id="Group_42" data-name="Group 42" transform="translate(26.945)">
              <path id="Path_63" data-name="Path 63" d="M65.472,87.265h0a5.093,5.093,0,0,1-5.087,5.092H46.75" transform="translate(-46.75 -75.83)" fill="none" stroke="#343d47" stroke-linecap="round" stroke-linejoin="round" stroke-miterlimit="10" stroke-width="2"/>
              <path id="Path_64" data-name="Path 64" d="M57.615,92.051V84.566a3.932,3.932,0,0,1,3.935-3.93H66.6" transform="translate(-38.872 -80.636)" fill="none" stroke="#343d47" stroke-linecap="round" stroke-linejoin="round" stroke-miterlimit="10" stroke-width="2"/>
            </g>
          </g>
          <line id="Line_24" data-name="Line 24" y2="21.639" transform="translate(79.646 59.811)" fill="none" stroke="#343d47" stroke-linecap="round" stroke-linejoin="round" stroke-miterlimit="10" stroke-width="2"/>
          <path id="Path_65" data-name="Path 65" d="M26.419,47.8h0a6.152,6.152,0,0,1,6.155,6.145V71.563" transform="translate(-11.458 -34.648)" fill="none" stroke="#343d47" stroke-linecap="round" stroke-linejoin="round" stroke-miterlimit="10" stroke-width="2"/>
          <path id="Path_66" data-name="Path 66" d="M70.061,47.8h0a6.143,6.143,0,0,0-6.145,6.145V71.563" transform="translate(15.73 -34.648)" fill="none" stroke="#343d47" stroke-linecap="round" stroke-linejoin="round" stroke-miterlimit="10" stroke-width="2"/>
          <path id="Path_67" data-name="Path 67" d="M22.861,78.5" transform="translate(-14.037 -12.39)" fill="none" stroke="#343d47" stroke-linecap="round" stroke-linejoin="round" stroke-miterlimit="10" stroke-width="2"/>
          <path id="Path_68" data-name="Path 68" d="M44.246,79.3l4.713-4.72,4.72,4.72" transform="translate(1.468 -15.227)" fill="none" stroke="#343d47" stroke-linecap="round" stroke-linejoin="round" stroke-miterlimit="10" stroke-width="2"/>
          <g id="Group_46" data-name="Group 46" transform="translate(41.063 79.972)">
            <g id="Group_44" data-name="Group 44">
              <line id="Line_25" data-name="Line 25" y2="5.111" stroke-width="2" stroke="#343d47" stroke-linecap="round" stroke-linejoin="round" stroke-miterlimit="10" fill="none"/>
              <line id="Line_26" data-name="Line 26" y2="5.111" transform="translate(9.364)" fill="none" stroke="#343d47" stroke-linecap="round" stroke-linejoin="round" stroke-miterlimit="10" stroke-width="2"/>
              <line id="Line_27" data-name="Line 27" y2="5.111" transform="translate(18.724)" fill="none" stroke="#343d47" stroke-linecap="round" stroke-linejoin="round" stroke-miterlimit="10" stroke-width="2"/>
            </g>
            <g id="Group_45" data-name="Group 45" transform="translate(0 6.203)">
              <line id="Line_28" data-name="Line 28" y2="5.113" stroke-width="2" stroke="#343d47" stroke-linecap="round" stroke-linejoin="round" stroke-miterlimit="10" fill="none"/>
              <line id="Line_29" data-name="Line 29" y2="5.113" transform="translate(9.364)" fill="none" stroke="#343d47" stroke-linecap="round" stroke-linejoin="round" stroke-miterlimit="10" stroke-width="2"/>
              <line id="Line_30" data-name="Line 30" y2="5.113" transform="translate(18.724)" fill="none" stroke="#343d47" stroke-linecap="round" stroke-linejoin="round" stroke-miterlimit="10" stroke-width="2"/>
            </g>
          </g>
          <g id="Group_47" data-name="Group 47" transform="translate(15.572 35.767)">
            <path id="Path_69" data-name="Path 69" d="M52.038,73.539A12.633,12.633,0,1,1,39.4,60.91,12.633,12.633,0,0,1,52.038,73.539Z" transform="translate(-26.773 -60.91)" fill="none" stroke="#343d47" stroke-linecap="round" stroke-linejoin="round" stroke-miterlimit="10" stroke-width="2"/>
            <path id="Path_70" data-name="Path 70" d="M77.8,73.539A12.633,12.633,0,1,1,65.169,60.91,12.632,12.632,0,0,1,77.8,73.539Z" transform="translate(-8.094 -60.91)" fill="none" stroke="#343d47" stroke-linecap="round" stroke-linejoin="round" stroke-miterlimit="10" stroke-width="2"/>
          </g>
        </g>
      </g>
      <g id="Group_50" data-name="Group 50" transform="translate(118.371 17.28)">
        <circle id="Ellipse_7" data-name="Ellipse 7" cx="23.161" cy="23.161" r="23.161" fill="#dadee0"/>
        <path id="Path_71" data-name="Path 71" d="M115.616,53.967A23.161,23.161,0,0,1,82.86,21.213" transform="translate(-76.076 -14.428)" fill="#c6ccce"/>
        <circle id="Ellipse_8" data-name="Ellipse 8" cx="0.647" cy="0.647" r="0.647" transform="translate(23.711 6.783)" fill="#f2f4f4"/>
        <circle id="Ellipse_9" data-name="Ellipse 9" cx="2.372" cy="2.372" r="2.372" transform="translate(25.759 12.296)" fill="#f2f4f4"/>
        <circle id="Ellipse_10" data-name="Ellipse 10" cx="0.876" cy="0.876" r="0.876" transform="translate(16.702 10.544)" fill="#f2f4f4"/>
        <circle id="Ellipse_11" data-name="Ellipse 11" cx="0.593" cy="0.593" r="0.593" transform="translate(33.953 18.01)" fill="#f2f4f4"/>
        <circle id="Ellipse_12" data-name="Ellipse 12" cx="0.605" cy="0.605" r="0.605" transform="translate(28.993 25.341)" fill="#f2f4f4"/>
        <circle id="Ellipse_13" data-name="Ellipse 13" cx="1.126" cy="1.126" r="1.126" transform="translate(20.908 17.042)" fill="#f2f4f4"/>
        <circle id="Ellipse_14" data-name="Ellipse 14" cx="1.934" cy="1.934" r="1.934" transform="translate(37.943 24.46)" fill="#f2f4f4"/>
        <circle id="Ellipse_15" data-name="Ellipse 15" cx="0.969" cy="0.969" r="0.969" transform="translate(12.498 20.383)" fill="#dadee0"/>
        <circle id="Ellipse_16" data-name="Ellipse 16" cx="1.537" cy="1.537" r="1.537" transform="translate(17.578 30.408)" fill="#dadee0"/>
        <circle id="Ellipse_17" data-name="Ellipse 17" cx="0.916" cy="0.916" r="0.916" transform="translate(3.873 24.46)" fill="#dadee0"/>
        <circle id="Ellipse_18" data-name="Ellipse 18" cx="0.756" cy="0.756" r="0.756" transform="translate(10.34 27.604)" fill="#dadee0"/>
        <circle id="Ellipse_19" data-name="Ellipse 19" cx="0.7" cy="0.7" r="0.7" transform="translate(6.46 16.393)" fill="#dadee0"/>
        <circle id="Ellipse_20" data-name="Ellipse 20" cx="3.007" cy="3.007" r="3.007" transform="translate(24.358 33.483)" fill="#dadee0"/>
        <circle id="Ellipse_21" data-name="Ellipse 21" cx="1.002" cy="1.002" r="1.002" transform="translate(11.851 36.49)" fill="#dadee0"/>
        <circle id="Ellipse_22" data-name="Ellipse 22" cx="0.707" cy="0.707" r="0.707" transform="translate(16.164 25.376)" fill="#dadee0"/>
        <circle id="Ellipse_23" data-name="Ellipse 23" cx="0.863" cy="0.863" r="0.863" transform="translate(19.115 38.495)" fill="#dadee0"/>
      </g>
    </g>
    <text id="Zombie_Dash" data-name="Zombie Dash" transform="translate(41 484)" fill="#856ca1" font-size="37" font-family="Chalkboard-Bold, Chalkboard" font-weight="700"><tspan x="35.244" y="36">Zombie Dash</tspan></text>
  </g>
</svg>
